<svg width="862" height="1756" viewBox="0 0 862 1756" fill="none" xmlns="http://www.w3.org/2000/svg">
<path d="M6.17829 108.009L8.27083 110.908L14.1437 106.669L28.872 127.076L22.9991 131.315L25.0916 134.214L40.1827 123.322L38.0902 120.423L32.2173 124.661L17.489 104.255L23.3619 100.016L21.2694 97.1169L6.17829 108.009Z" fill="#3D3636"/>
<path d="M36.5912 101.187L39.1299 98.3547L28.7683 88.9409L26.1911 91.7978L36.5912 101.187Z" fill="#3D3636"/>
<path d="M56.2209 112.613L59.7931 110.642L55.2313 102.374C52.286 97.0362 52.2154 92.2585 56.4297 89.9333C59.3998 88.2946 61.599 89.9084 63.7249 93.7615L69.9476 105.04L73.5198 103.069L68.958 94.8008C66.0127 89.4627 65.9421 84.685 70.1564 82.3598C73.1265 80.7211 75.3257 82.3349 77.4516 86.188L83.6743 97.4663L87.2465 95.4954L80.7802 83.7756C77.8349 78.4374 73.8517 76.3421 69.3163 78.8444C65.2625 81.081 64.183 84.8179 64.738 88.3859C62.2177 85.4311 59.1617 84.447 55.7903 86.3072C51.8569 88.4774 50.9199 92.188 51.5552 95.7117L48.7871 90.6946L45.215 92.6655L56.2209 112.613Z" fill="#3D3636"/>
<path d="M101.731 88.5043L105.692 86.8068L104.692 73.7694L116.152 68.8573L124.862 78.5899L128.865 76.8743L106.021 51.5046L99.1536 54.4482L101.731 88.5043ZM104.379 70.0135L103.18 54.418L113.606 66.0585L104.379 70.0135Z" fill="#3D3636"/>
<path d="M133.009 75.2734L136.847 73.89L134.951 68.6288C137.688 71.4916 141.574 72.6736 146.188 71.0103C152.355 68.7875 154.558 62.7311 152.21 56.2194C149.863 49.7076 144.319 46.4922 138.152 48.715C133.408 50.4249 131.245 53.8848 130.987 57.6321L125.423 42.1935L121.585 43.577L133.009 75.2734ZM133.063 63.1209C131.182 57.9029 133.9 53.951 138.083 52.4433C142.266 50.9355 146.473 52.1967 148.416 57.5872C150.359 62.9778 147.939 66.6759 143.756 68.1837C139.573 69.6914 134.975 68.4252 133.063 63.1209Z" fill="#3D3636"/>
<path d="M161.15 65.2564L165.059 64.0889L163.459 58.7303C166.033 61.7411 169.846 63.1376 174.546 61.7339C180.827 59.8579 183.363 53.9336 181.382 47.3012C179.402 40.6688 174.045 37.1497 167.764 39.0257C162.932 40.4687 160.579 43.8028 160.114 47.5299L155.417 31.8055L151.508 32.973L161.15 65.2564ZM161.881 53.1258C160.293 47.8111 163.227 44.0167 167.487 42.7442C171.748 41.4717 175.877 42.9652 177.517 48.4556C179.157 53.946 176.536 57.5037 172.275 58.7762C168.015 60.0487 163.494 58.5284 161.881 53.1258Z" fill="#3D3636"/>
<path d="M206.74 29.3397L202.772 30.29L205.025 39.6962C206.456 45.6699 204.387 50.2191 199.573 51.3722C195.783 52.2797 193.618 50.913 192.529 46.3659L189.443 33.4824L185.475 34.4326L188.668 47.7619C190.098 53.7356 193.92 56.3084 199.002 55.0912C203.906 53.9168 206.384 50.6836 206.637 46.4277L209.349 57.7509L193.301 61.5947L194.112 64.9827L211.052 60.9254C213.148 60.4236 213.904 59.2526 213.477 57.4694L206.74 29.3397Z" fill="#3D3636"/>
<path d="M218.781 42.4332L217.832 56.4123L221.626 56.6833L222.575 42.7042L218.781 42.4332Z" fill="#3D3636"/>
<path d="M240.052 39.6535C240.38 42.0146 241.984 46.2348 248.613 45.3144C254.198 44.539 256.434 41.3129 257.037 37.9895L257.434 40.85C257.674 42.5754 258.812 43.4356 260.537 43.1961L264.669 42.6224L264.19 39.1717L260.875 39.6319L259.564 30.1877C258.719 24.1034 254.662 20.5478 248.124 21.4556C242.221 22.2751 239.191 26.1205 239.404 31.3205L243.4 30.7658C243.24 26.9468 245.354 25.1723 248.487 24.7373C252.573 24.17 254.66 25.8702 255.409 29.9314L246.675 32.0234C241.387 33.2667 239.554 36.0666 240.052 39.6535ZM243.978 38.5993C243.676 36.4199 245.022 35.4463 247.753 34.7893L255.807 32.7919C256.437 37.3324 253.692 41.2308 248.789 41.9116C246.201 42.2709 244.338 41.1874 243.978 38.5993Z" fill="#3D3636"/>
<path d="M281.412 49.4519L280.414 49.5131L280.475 50.5112L281.473 50.4501L281.412 49.4519ZM285.484 49.2025L285.545 50.2006L286.543 50.1394L286.482 49.1413L285.484 49.2025ZM284.623 35.1558L285.514 34.7022L283.625 35.217L284.623 35.1558ZM283.909 23.4884L282.91 23.5496L284.844 23.8413L283.909 23.4884ZM283.569 17.9521L284.567 17.891L284.506 16.8929L283.508 16.954L283.569 17.9521ZM279.497 18.2016L279.436 17.2035L278.438 17.2646L278.499 18.2628L279.497 18.2016ZM281.473 50.4501L285.545 50.2006L285.423 48.2043L281.351 48.4538L281.473 50.4501ZM286.482 49.1413L285.621 35.0947L283.625 35.217L284.486 49.2636L286.482 49.1413ZM283.732 35.6095C285.635 39.348 289.365 41.8835 294.797 41.5507L294.675 39.5545C290.041 39.8384 287.057 37.7333 285.514 34.7022L283.732 35.6095ZM294.797 41.5507C298.334 41.3341 301.197 39.8219 303.105 37.3799C305.003 34.9511 305.895 31.6824 305.672 28.0337L303.676 28.156C303.875 31.4162 303.071 34.176 301.529 36.1486C299.998 38.1081 297.681 39.3703 294.675 39.5545L294.797 41.5507ZM305.672 28.0337C305.447 24.3636 304.163 21.2169 301.982 19.0316C299.79 16.8342 296.763 15.6827 293.226 15.8994L293.348 17.8957C296.354 17.7115 298.808 18.6813 300.566 20.4442C302.337 22.219 303.474 24.8714 303.676 28.156L305.672 28.0337ZM293.226 15.8994C287.936 16.2235 284.494 19.1006 282.973 23.1356L284.844 23.8413C286.088 20.5423 288.846 18.1715 293.348 17.8957L293.226 15.8994ZM284.907 23.4273L284.567 17.891L282.571 18.0133L282.91 23.5496L284.907 23.4273ZM283.508 16.954L279.436 17.2035L279.558 19.1997L283.631 18.9503L283.508 16.954ZM278.499 18.2628L280.414 49.5131L282.41 49.3908L280.495 18.1405L278.499 18.2628ZM285.357 29.2783C285.2 26.7097 285.967 24.8435 287.189 23.5863C288.426 22.3141 290.214 21.5781 292.234 21.4543L292.112 19.458C289.694 19.6062 287.402 20.4979 285.755 22.1923C284.094 23.9018 283.173 26.3413 283.361 29.4005L285.357 29.2783ZM292.234 21.4543C294.259 21.3303 296.017 21.8282 297.296 22.9145C298.566 23.9928 299.487 25.754 299.649 28.4027L301.646 28.2804C301.457 25.2098 300.36 22.8923 298.59 21.3898C296.83 19.8953 294.525 19.3102 292.112 19.458L292.234 21.4543ZM299.649 28.4027C299.81 31.0262 299.112 32.8751 297.983 34.0955C296.844 35.3255 295.16 36.0344 293.135 36.1584L293.257 38.1547C295.671 38.0069 297.886 37.145 299.451 35.4538C301.024 33.7531 301.832 31.3304 301.646 28.2804L299.649 28.4027ZM293.135 36.1584C291.119 36.2819 289.252 35.7606 287.867 34.6467C286.498 33.5456 285.511 31.7966 285.357 29.2783L283.361 29.4005C283.546 32.4185 284.759 34.714 286.614 36.2054C288.453 37.684 290.835 38.3031 293.257 38.1547L293.135 36.1584Z" fill="#3D3636"/>
<path d="M311.667 39.3045L310.667 39.3165L310.679 40.3164L311.679 40.3045L311.667 39.3045ZM315.746 39.2558L315.758 40.2558L316.758 40.2438L316.746 39.2439L315.746 39.2558ZM315.516 19.9585L315.504 18.9585L314.504 18.9705L314.516 19.9704L315.516 19.9585ZM327.525 19.8151L327.537 20.815L328.537 20.8031L328.525 19.8032L327.525 19.8151ZM327.484 16.3315L328.484 16.3196L328.472 15.3196L327.472 15.3316L327.484 16.3315ZM310.433 19.6982L310.667 39.3165L312.667 39.2926L312.433 19.6744L310.433 19.6982ZM311.679 40.3045L315.758 40.2558L315.735 38.2559L311.655 38.3046L311.679 40.3045ZM316.746 39.2439L316.516 19.9465L314.516 19.9704L314.747 39.2678L316.746 39.2439ZM315.528 20.9584L327.537 20.815L327.513 18.8152L315.504 18.9585L315.528 20.9584ZM328.525 19.8032L328.484 16.3196L326.484 16.3434L326.525 19.827L328.525 19.8032ZM327.472 15.3316L314.592 15.4853L314.616 17.4852L327.496 17.3314L327.472 15.3316ZM314.592 15.4853C313.377 15.4998 312.276 15.7962 311.493 16.5812C310.705 17.3704 310.418 18.4725 310.433 19.6982L312.433 19.6744C312.422 18.7458 312.643 18.2602 312.909 17.9939C313.178 17.7234 313.676 17.4964 314.616 17.4852L314.592 15.4853Z" fill="#3D3636"/>
<path d="M380.153 36.3165L381.149 36.4072L379.275 35.8394L380.153 36.3165ZM379.642 41.9315L378.646 41.8407L378.555 42.8366L379.551 42.9274L379.642 41.9315ZM383.659 42.2978L383.568 43.2936L384.564 43.3844L384.655 42.3886L383.659 42.2978ZM386.718 8.74432L387.714 8.83512L387.804 7.83925L386.809 7.74845L386.718 8.74432ZM382.701 8.37807L382.791 7.3822L381.795 7.29141L381.705 8.28728L382.701 8.37807ZM381.198 24.8581L380.247 25.1669L382.194 24.9489L381.198 24.8581ZM369.74 42.4932C375.111 42.9829 378.96 40.6116 381.032 36.7935L379.275 35.8394C377.585 38.9511 374.502 40.9191 369.921 40.5015L369.74 42.4932ZM379.158 36.2257L378.646 41.8407L380.637 42.0223L381.149 36.4072L379.158 36.2257ZM379.551 42.9274L383.568 43.2936L383.75 41.3019L379.732 40.9356L379.551 42.9274ZM384.655 42.3886L387.714 8.83512L385.722 8.65353L382.663 42.207L384.655 42.3886ZM386.809 7.74845L382.791 7.3822L382.61 9.37394L386.627 9.74019L386.809 7.74845ZM381.705 8.28728L380.202 24.7673L382.194 24.9489L383.696 8.46887L381.705 8.28728ZM382.149 24.5492C380.842 20.5227 377.545 17.3989 372.073 16.9L371.892 18.8917C376.554 19.3167 379.182 21.8885 380.247 25.1669L382.149 24.5492ZM372.073 16.9C368.565 16.5802 365.507 17.6422 363.247 19.7643C360.999 21.8758 359.608 24.97 359.276 28.6133L361.268 28.7948C361.564 25.5448 362.788 22.9394 364.616 21.2223C366.434 19.5159 368.917 18.6205 371.892 18.8917L372.073 16.9ZM359.276 28.6133C358.944 32.2563 359.751 35.5611 361.578 38.0551C363.415 40.562 366.229 42.1732 369.74 42.4932L369.921 40.5015C366.95 40.2306 364.67 38.8918 363.191 36.873C361.703 34.8414 360.971 32.0451 361.268 28.7948L359.276 28.6133ZM365.331 29.1653C365.569 26.5476 366.54 24.825 367.837 23.7889C369.143 22.7451 370.904 22.3 372.899 22.4819L373.081 20.4901C370.693 20.2725 368.385 20.7912 366.588 22.2263C364.782 23.6692 363.616 25.9406 363.339 28.9837L365.331 29.1653ZM372.899 22.4819C374.911 22.6653 376.677 23.4634 377.877 24.7744C379.064 26.0703 379.774 27.9485 379.545 30.4612L381.537 30.6427C381.811 27.6316 380.96 25.1788 379.352 23.4236C377.759 21.6834 375.497 20.7105 373.081 20.4901L372.899 22.4819ZM379.545 30.4612C379.314 32.9991 378.273 34.7292 376.871 35.7938C375.453 36.8705 373.573 37.3361 371.562 37.1527L371.38 39.1445C373.797 39.3648 376.198 38.8168 378.081 37.3866C379.98 35.9443 381.26 33.6742 381.537 30.6427L379.545 30.4612ZM371.562 37.1527C369.571 36.9712 367.921 36.2063 366.824 34.9321C365.734 33.6662 365.092 31.7832 365.331 29.1653L363.339 28.9837C363.062 32.0265 363.796 34.4807 365.308 36.2369C366.812 37.9846 368.988 38.9264 371.38 39.1445L371.562 37.1527Z" fill="#3D3636"/>
<path d="M408.702 39.4962L409.691 39.6433L407.797 39.071L408.702 39.4962ZM407.784 45.6626L406.795 45.5155L406.648 46.5046L407.637 46.6517L407.784 45.6626ZM411.774 46.2561L411.627 47.2453L412.616 47.3924L412.764 46.4033L411.774 46.2561ZM415.126 23.7215L416.116 23.8686L416.263 22.8795L415.274 22.7324L415.126 23.7215ZM411.136 23.128L411.284 22.1388L410.294 21.9917L410.147 22.9808L411.136 23.128ZM397.579 21.1113L398.569 21.2584L398.716 20.2693L397.727 20.1222L397.579 21.1113ZM393.499 20.5043L393.646 19.5152L392.657 19.368L392.51 20.3571L393.499 20.5043ZM398.229 45.7157C400.873 46.109 403.218 45.7615 405.171 44.7342C407.125 43.7065 408.612 42.0383 409.607 39.9213L407.797 39.071C406.96 40.8527 405.755 42.1673 404.24 42.964C402.725 43.761 400.822 44.0794 398.524 43.7375L398.229 45.7157ZM407.713 39.3491L406.795 45.5155L408.773 45.8097L409.691 39.6433L407.713 39.3491ZM407.637 46.6517L411.627 47.2453L411.922 45.267L407.931 44.6735L407.637 46.6517ZM412.764 46.4033L416.116 23.8686L414.137 23.5743L410.785 46.109L412.764 46.4033ZM415.274 22.7324L411.284 22.1388L410.989 24.1171L414.979 24.7106L415.274 22.7324ZM410.147 22.9808L408.724 32.5478L410.702 32.8421L412.126 23.2751L410.147 22.9808ZM408.724 32.5478C408.295 35.4325 407.238 37.5799 405.813 38.9128C404.411 40.2233 402.581 40.8189 400.397 40.4939L400.102 42.4721C402.86 42.8823 405.31 42.1217 407.179 40.3734C409.024 38.6474 410.228 36.0332 410.702 32.8421L408.724 32.5478ZM400.397 40.4939C398.607 40.2277 397.612 39.6495 397.075 38.8232C396.515 37.9625 396.288 36.5892 396.619 34.3621L394.641 34.0678C394.284 36.4656 394.44 38.4397 395.398 39.9135C396.379 41.4216 398.038 42.165 400.102 42.4721L400.397 40.4939ZM396.619 34.3621L398.569 21.2584L396.59 20.9642L394.641 34.0678L396.619 34.3621ZM397.727 20.1222L393.646 19.5152L393.352 21.4934L397.432 22.1004L397.727 20.1222ZM392.51 20.3571L390.5 33.8689L392.478 34.1631L394.488 20.6514L392.51 20.3571ZM390.5 33.8689C390.024 37.0633 390.444 39.8159 391.8 41.9036C393.169 44.0109 395.398 45.2945 398.229 45.7157L398.524 43.7375C396.141 43.3831 394.474 42.3493 393.477 40.8141C392.467 39.2594 392.049 37.0445 392.478 34.1631L390.5 33.8689Z" fill="#3D3636"/>
<path d="M439.63 42.7938L440.59 43.072L440.893 42.0281L439.827 41.8135L439.63 42.7938ZM435.63 41.9883L435.828 41.008L434.987 40.8386L434.691 41.6441L435.63 41.9883ZM436.689 36.7306L435.69 36.6845L435.651 37.5415L436.492 37.7109L436.689 36.7306ZM440.689 37.5361L440.491 38.5164L441.557 38.731L441.682 37.6514L440.689 37.5361ZM417.164 35.5101C416.461 38.9994 416.949 42.3885 418.643 45.1216C420.343 47.8652 423.203 49.8575 427.062 50.6347L427.457 48.6741C424.081 47.9941 421.722 46.2935 420.343 44.0681C418.958 41.8323 418.506 38.9765 419.125 35.905L417.164 35.5101ZM427.062 50.6347C429.474 51.1206 432.324 50.9951 434.848 49.8617C437.405 48.7138 439.584 46.5474 440.59 43.072L438.669 42.5156C437.833 45.4026 436.074 47.1191 434.029 48.0372C431.952 48.9697 429.538 49.0933 427.457 48.6741L427.062 50.6347ZM439.827 41.8135L435.828 41.008L435.433 42.9686L439.432 43.7741L439.827 41.8135ZM434.691 41.6441C434.036 43.4306 433.08 44.4296 432.02 44.9447C430.941 45.4693 429.622 45.5563 428.144 45.2588L427.75 47.2194C429.508 47.5736 431.304 47.5165 432.894 46.7434C434.504 45.9608 435.771 44.5086 436.569 42.3325L434.691 41.6441ZM428.144 45.2588C425.889 44.8046 424.463 43.6704 423.671 42.2153C422.863 40.7322 422.656 38.804 423.079 36.7014L421.118 36.3066C420.628 38.7427 420.827 41.1752 421.914 43.1716C423.017 45.1959 424.972 46.66 427.75 47.2194L428.144 45.2588ZM423.079 36.7014C423.498 34.6234 424.432 32.9371 425.75 31.8871C427.043 30.8566 428.798 30.3629 431.053 30.8171L431.448 28.8565C428.67 28.2971 426.302 28.89 424.503 30.3231C422.73 31.7367 421.605 33.8908 421.118 36.3066L423.079 36.7014ZM431.053 30.8171C432.53 31.1146 433.713 31.7056 434.505 32.607C435.282 33.4921 435.778 34.7837 435.69 36.6845L437.688 36.7766C437.795 34.4614 437.189 32.6319 436.007 31.287C434.84 29.9586 433.206 29.2107 431.448 28.8565L431.053 30.8171ZM436.492 37.7109L440.491 38.5164L440.886 36.5558L436.887 35.7502L436.492 37.7109ZM441.682 37.6514C442.099 34.0574 440.929 31.2164 439.016 29.1683C437.127 27.1461 434.548 25.9271 432.136 25.4412L431.741 27.4019C433.823 27.8211 436 28.8696 437.554 30.5334C439.084 32.1714 440.042 34.4352 439.695 37.4207L441.682 37.6514ZM432.136 25.4412C428.277 24.664 424.87 25.394 422.242 27.2591C419.623 29.1172 417.862 32.0416 417.164 35.5101L419.125 35.905C419.738 32.8575 421.257 30.4103 423.399 28.8901C425.531 27.3769 428.365 26.7219 431.741 27.4019L432.136 25.4412Z" fill="#3D3636"/>
<path d="M458.135 52.6712L459.105 52.9124L459.348 51.9364L458.371 51.6993L458.135 52.6712ZM450.294 50.7694L449.324 50.5281L449.081 51.5041L450.059 51.7412L450.294 50.7694ZM454.12 35.3771L454.362 34.4066L453.391 34.1654L453.15 35.1358L454.12 35.3771ZM461.06 37.1022L460.819 38.0726L461.79 38.3139L462.031 37.3434L461.06 37.1022ZM461.901 33.7212L462.871 33.9624L463.112 32.992L462.142 32.7507L461.901 33.7212ZM454.961 31.9961L453.99 31.7549L453.749 32.7253L454.72 32.9666L454.961 31.9961ZM456.653 25.1897L457.623 25.4309L457.948 24.1223L456.602 24.191L456.653 25.1897ZM452.395 25.4066L452.344 24.4079L451.603 24.4456L451.424 25.1654L452.395 25.4066ZM451.002 31.0119L450.76 31.9824L451.731 32.2236L451.972 31.2531L451.002 31.0119ZM446.108 29.7955L446.349 28.825L445.379 28.5838L445.138 29.5543L446.108 29.7955ZM445.268 33.1765L444.297 32.9352L444.056 33.9057L445.026 34.1469L445.268 33.1765ZM450.161 34.3929L451.132 34.6341L451.373 33.6636L450.402 33.4224L450.161 34.3929ZM457.294 56.0521L457.053 57.0226L458.024 57.2638L458.265 56.2934L457.294 56.0521ZM458.371 51.6993L450.53 49.7976L450.059 51.7412L457.899 53.643L458.371 51.6993ZM451.265 51.0106L455.091 35.6183L453.15 35.1358L449.324 50.5281L451.265 51.0106ZM453.879 36.3475L460.819 38.0726L461.302 36.1317L454.362 34.4066L453.879 36.3475ZM462.031 37.3434L462.871 33.9624L460.93 33.48L460.09 36.8609L462.031 37.3434ZM462.142 32.7507L455.202 31.0256L454.72 32.9666L461.659 34.6917L462.142 32.7507ZM455.931 32.2373L457.623 25.4309L455.682 24.9484L453.99 31.7549L455.931 32.2373ZM456.602 24.191L452.344 24.4079L452.446 26.4053L456.704 26.1884L456.602 24.191ZM451.424 25.1654L450.031 30.7707L451.972 31.2531L453.365 25.6478L451.424 25.1654ZM451.243 30.0414L446.349 28.825L445.867 30.766L450.76 31.9824L451.243 30.0414ZM445.138 29.5543L444.297 32.9352L446.238 33.4177L447.078 30.0367L445.138 29.5543ZM445.026 34.1469L449.92 35.3633L450.402 33.4224L445.509 32.206L445.026 34.1469ZM449.191 34.1516L445.309 49.7664L447.25 50.2489L451.132 34.6341L449.191 34.1516ZM445.309 49.7664C445.009 50.9731 445.03 52.122 445.612 53.0778C446.193 54.0312 447.199 54.5731 448.378 54.8662L448.861 52.9253C447.949 52.6987 447.52 52.3642 447.321 52.0373C447.123 51.7128 447.019 51.1775 447.25 50.2489L445.309 49.7664ZM448.378 54.8662L457.053 57.0226L457.536 55.0817L448.861 52.9253L448.378 54.8662ZM458.265 56.2934L459.105 52.9124L457.164 52.4299L456.324 55.8109L458.265 56.2934Z" fill="#3D3636"/>
<path d="M495.111 61.453L496.062 61.7614L494.359 60.7937L495.111 61.453ZM493.372 66.8166L492.421 66.5082L492.112 67.4594L493.063 67.7678L493.372 66.8166ZM497.209 68.0605L496.901 69.0118L497.852 69.3202L498.16 68.3689L497.209 68.0605ZM507.599 36.0099L508.55 36.3183L508.859 35.367L507.907 35.0587L507.599 36.0099ZM503.762 34.766L504.07 33.8147L503.119 33.5063L502.81 34.4576L503.762 34.766ZM498.659 50.5078L497.663 50.5991L499.61 50.8162L498.659 50.5078ZM483.59 65.1788C488.721 66.8421 492.998 65.3787 495.862 62.1123L494.359 60.7937C492.024 63.4558 488.582 64.6946 484.207 63.2763L483.59 65.1788ZM494.159 61.1446L492.421 66.5082L494.323 67.1249L496.062 61.7614L494.159 61.1446ZM493.063 67.7678L496.901 69.0118L497.518 67.1093L493.68 65.8653L493.063 67.7678ZM498.16 68.3689L508.55 36.3183L506.648 35.7015L496.258 67.7521L498.16 68.3689ZM507.907 35.0587L504.07 33.8147L503.453 35.7172L507.291 36.9612L507.907 35.0587ZM502.81 34.4576L497.707 50.1994L499.61 50.8162L504.713 35.0743L502.81 34.4576ZM499.654 50.4165C499.268 46.2008 496.743 42.4264 491.515 40.7318L490.899 42.6344C495.352 44.078 497.348 47.1665 497.663 50.5991L499.654 50.4165ZM491.515 40.7318C488.165 39.6456 484.948 40.0065 482.275 41.5774C479.616 43.1404 477.577 45.8514 476.448 49.3315L478.351 49.9482C479.357 46.8437 481.126 44.5727 483.288 43.3016C485.438 42.0385 488.057 41.7132 490.899 42.6344L491.515 40.7318ZM476.448 49.3315C475.32 52.8113 475.378 56.2127 476.609 59.0485C477.848 61.899 480.237 64.0917 483.59 65.1788L484.207 63.2763C481.369 62.3561 479.441 60.5472 478.444 58.2518C477.441 55.9417 477.344 53.0529 478.351 49.9482L476.448 49.3315ZM482.232 51.2063C483.042 48.7059 484.369 47.24 485.863 46.5157C487.367 45.7861 489.183 45.7406 491.089 46.3584L491.706 44.4558C489.425 43.7166 487.059 43.7129 484.99 44.7161C482.91 45.7248 481.272 47.6828 480.329 50.5896L482.232 51.2063ZM491.089 46.3584C493.01 46.9812 494.557 48.1495 495.438 49.6932C496.31 51.2191 496.588 53.2077 495.81 55.6078L497.712 56.2246C498.644 53.3483 498.355 50.768 497.175 48.7013C496.005 46.6522 494.014 45.2042 491.706 44.4558L491.089 46.3584ZM495.81 55.6078C495.024 58.0321 493.627 59.4898 492.025 60.2187C490.404 60.9559 488.467 60.9949 486.546 60.3721L485.929 62.2747C488.238 63.023 490.7 63.0184 492.853 62.0392C495.024 61.0517 496.773 59.1202 497.712 56.2246L495.81 55.6078ZM486.546 60.3721C484.645 59.7557 483.204 58.6453 482.415 57.1604C481.632 55.6853 481.421 53.707 482.232 51.2063L480.329 50.5896C479.387 53.4961 479.562 56.052 480.649 58.0985C481.73 60.1352 483.645 61.534 485.929 62.2747L486.546 60.3721Z" fill="#3D3636"/>
<path d="M527.091 70.7366L527.927 71.2848L528.607 70.2472L527.449 69.8029L527.091 70.7366ZM523.324 69.2921L523.682 68.3584L522.951 68.0779L522.503 68.7211L523.324 69.2921ZM511.051 61.7377L511.409 60.804L510.446 60.4347L510.107 61.4087L511.051 61.7377ZM527.957 68.2213L527.599 69.155L528.533 69.5131L528.891 68.5794L527.957 68.2213ZM512.128 59.0577L511.225 58.6283L510.761 59.6044L511.77 59.9914L512.128 59.0577ZM525.268 64.0968L524.91 65.0305L525.908 65.4133L526.223 64.392L525.268 64.0968ZM506.814 58.9836C505.544 62.2937 505.291 65.7161 506.346 68.7101C507.411 71.731 509.77 74.1986 513.483 75.6226L514.199 73.7552C510.979 72.5201 509.084 70.46 508.232 68.045C507.371 65.603 507.538 62.6813 508.681 59.6998L506.814 58.9836ZM513.483 75.6226C516.957 76.955 519.936 76.8924 522.395 75.9406C524.836 74.9961 526.661 73.2161 527.927 71.2848L526.254 70.1883C525.154 71.8665 523.629 73.3184 521.673 74.0755C519.736 74.8253 517.273 74.9342 514.199 73.7552L513.483 75.6226ZM527.449 69.8029L523.682 68.3584L522.966 70.2258L526.733 71.6703L527.449 69.8029ZM522.503 68.7211C521.677 69.9093 520.67 70.6834 519.52 71.032C518.371 71.3806 516.977 71.3348 515.322 70.7L514.606 72.5674C516.588 73.3278 518.445 73.4483 520.101 72.9459C521.757 72.4435 523.112 71.3492 524.145 69.8632L522.503 68.7211ZM515.322 70.7C513.362 69.9485 512.252 68.728 511.749 67.2957C511.234 65.8311 511.314 64.0213 511.995 62.0668L510.107 61.4087C509.324 63.655 509.156 65.9479 509.862 67.9584C510.579 70.0012 512.157 71.6281 514.606 72.5674L515.322 70.7ZM510.693 62.6714L527.599 69.155L528.315 67.2876L511.409 60.804L510.693 62.6714ZM528.891 68.5794L529.416 67.2098L527.549 66.4936L527.023 67.8632L528.891 68.5794ZM529.416 67.2098C530.756 63.7164 530.759 60.4372 529.493 57.6736C528.229 54.9144 525.762 52.8073 522.429 51.5288L521.712 53.3962C524.67 54.5305 526.674 56.3224 527.675 58.5067C528.673 60.6866 528.737 63.3957 527.549 66.4936L529.416 67.2098ZM522.429 51.5288C519.187 50.2856 515.982 50.2527 513.202 51.536C510.424 52.8183 508.207 55.3521 506.814 58.9836L508.681 59.6998C509.931 56.4404 511.836 54.3692 514.04 53.3518C516.242 52.3355 518.876 52.3085 521.712 53.3962L522.429 51.5288ZM513.031 59.4871C513.825 57.8176 514.968 56.7799 516.239 56.2833C517.514 55.7852 519.008 55.7958 520.563 56.3922L521.28 54.5248C519.325 53.7753 517.311 53.7169 515.511 54.4205C513.706 55.1257 512.208 56.5606 511.225 58.6283L513.031 59.4871ZM520.563 56.3922C522.287 57.0531 523.463 58.0789 524.091 59.3015C524.717 60.5174 524.858 62.0363 524.312 63.8017L526.223 64.392C526.898 62.2068 526.77 60.137 525.87 58.3866C524.973 56.6429 523.366 55.3248 521.28 54.5248L520.563 56.3922ZM525.626 63.1631L512.486 58.124L511.77 59.9914L524.91 65.0305L525.626 63.1631Z" fill="#3D3636"/>
<path d="M546.624 74.165L547.261 73.3938L547.26 73.3931L546.624 74.165ZM542.357 70.6498L541.72 71.4209L541.721 71.4217L542.357 70.6498ZM549.282 71.9745L548.366 71.5742L547.965 72.4905L548.882 72.8909L549.282 71.9745ZM553.021 73.608L552.62 74.5243L553.536 74.9247L553.937 74.0083L553.021 73.608ZM539.298 72.6147L539.94 71.848L539.934 71.8436L539.298 72.6147ZM544.169 76.6939L543.527 77.4605L543.535 77.4677L543.544 77.4746L544.169 76.6939ZM536.319 74.1648L537.235 74.5652L537.636 73.6488L536.72 73.2485L536.319 74.1648ZM532.581 72.5314L532.981 71.615L532.065 71.2147L531.664 72.131L532.581 72.5314ZM538.468 85.8495C541.257 87.068 543.776 87.5113 545.89 87.0455C548.063 86.5668 549.665 85.1586 550.605 83.0078L548.772 82.2071C548.06 83.8368 546.941 84.766 545.46 85.0923C543.921 85.4315 541.856 85.1474 539.268 84.0168L538.468 85.8495ZM550.605 83.0078C551.412 81.161 551.435 79.4092 550.773 77.757C550.127 76.1485 548.865 74.7185 547.261 73.3938L545.987 74.9361C547.471 76.1612 548.448 77.3352 548.916 78.5019C549.367 79.6249 549.379 80.8194 548.772 82.2071L550.605 83.0078ZM547.26 73.3931L542.993 69.878L541.721 71.4217L545.988 74.9368L547.26 73.3931ZM542.994 69.8787C542.141 69.1749 541.693 68.6138 541.496 68.1575C541.324 67.757 541.322 67.3881 541.521 66.9327L539.688 66.132C539.281 67.0628 539.255 68.009 539.66 68.9488C540.041 69.8328 540.771 70.6374 541.72 71.4209L542.994 69.8787ZM541.521 66.9327C541.701 66.5196 542.087 66.192 542.778 66.075C543.491 65.954 544.5 66.0743 545.723 66.6087L546.524 64.776C545.059 64.1358 543.648 63.8989 542.443 64.1031C541.216 64.3112 540.186 64.9909 539.688 66.132L541.521 66.9327ZM545.723 66.6087C547.177 67.2439 548.022 68.0459 548.414 68.8503C548.795 69.6301 548.817 70.5418 548.366 71.5742L550.198 72.3749C550.848 70.8869 550.887 69.3549 550.212 67.9724C549.548 66.6145 548.263 65.5356 546.524 64.776L545.723 66.6087ZM548.882 72.8909L552.62 74.5243L553.421 72.6916L549.682 71.0582L548.882 72.8909ZM553.937 74.0083C555.037 71.4903 554.979 69.0446 553.825 66.8977C552.69 64.7885 550.563 63.0887 547.749 61.8592L546.948 63.6919C549.511 64.8116 551.21 66.2597 552.063 67.8452C552.896 69.393 552.986 71.1889 552.104 73.2076L553.937 74.0083ZM547.749 61.8592C545.162 60.7289 542.722 60.2997 540.648 60.7264C538.521 61.164 536.88 62.4841 535.955 64.601L537.787 65.4017C538.459 63.8641 539.578 62.9885 541.051 62.6854C542.577 62.3714 544.578 62.6566 546.948 63.6919L547.749 61.8592ZM535.955 64.601C535.117 66.5192 535.214 68.281 535.845 69.7989C536.461 71.2811 537.562 72.4788 538.661 73.3858L539.934 71.8436C538.974 71.0507 538.137 70.101 537.692 69.0311C537.262 67.9969 537.176 66.8019 537.787 65.4017L535.955 64.601ZM538.655 73.3814L543.527 77.4605L544.811 75.9272L539.94 71.848L538.655 73.3814ZM543.544 77.4746C544.461 78.2088 544.921 78.7764 545.116 79.2301C545.285 79.6216 545.287 79.9952 545.071 80.4897L546.903 81.2904C547.311 80.3567 547.368 79.4034 546.953 78.4394C546.565 77.5377 545.803 76.7213 544.793 75.9131L543.544 77.4746ZM545.071 80.4897C544.711 81.3122 544.244 81.6476 543.666 81.7514C542.994 81.8721 542.002 81.7095 540.595 81.0947L539.794 82.9274C541.328 83.5973 542.764 83.9454 544.019 83.7199C545.368 83.4776 546.327 82.6101 546.903 81.2904L545.071 80.4897ZM540.595 81.0947C538.781 80.3022 537.664 79.3302 537.134 78.2917C536.623 77.2913 536.577 76.0722 537.235 74.5652L535.403 73.7644C534.556 75.7019 534.516 77.5617 535.353 79.2012C536.17 80.8026 537.744 82.0315 539.794 82.9274L540.595 81.0947ZM536.72 73.2485L532.981 71.615L532.18 73.4478L535.919 75.0812L536.72 73.2485ZM531.664 72.131C530.435 74.9449 530.422 77.6836 531.655 80.1049C532.872 82.4938 535.228 84.4343 538.468 85.8495L539.268 84.0168C536.29 82.7157 534.375 81.0387 533.438 79.1975C532.517 77.3887 532.469 75.2846 533.497 72.9318L531.664 72.131Z" fill="#3D3636"/>
<path d="M551.632 90.1261L550.731 89.6907L550.296 90.591L551.196 91.0264L551.632 90.1261ZM566.447 97.2913L566.011 98.1915L566.911 98.6269L567.347 97.7267L566.447 97.2913ZM567.963 94.155L568.864 94.5904L569.299 93.6902L568.399 93.2548L567.963 94.155ZM562.227 91.3807L561.327 90.9453L560.892 91.8456L561.792 92.281L562.227 91.3807ZM562.996 70.3149L563.431 69.4147L562.531 68.9793L562.095 69.8795L562.996 70.3149ZM561.479 73.4512L560.578 73.0158L560.143 73.916L561.043 74.3514L561.479 73.4512ZM565.729 75.507L566.629 75.9423L567.065 75.0421L566.165 74.6067L565.729 75.507ZM558.843 89.7441L558.408 90.6444L559.308 91.0798L559.744 90.1795L558.843 89.7441ZM553.149 86.9898L553.584 86.0896L552.684 85.6542L552.248 86.5544L553.149 86.9898ZM551.196 91.0264L566.011 98.1915L566.882 96.3911L552.067 89.2259L551.196 91.0264ZM567.347 97.7267L568.864 94.5904L567.063 93.7196L565.546 96.8559L567.347 97.7267ZM568.399 93.2548L562.663 90.4805L561.792 92.281L567.528 95.0552L568.399 93.2548ZM563.128 91.8161L570.373 76.8362L568.572 75.9654L561.327 90.9453L563.128 91.8161ZM570.373 76.8362C570.846 75.8574 571.03 74.8679 570.702 73.9452C570.375 73.0254 569.623 72.4097 568.754 71.9893L567.884 73.7898C568.5 74.088 568.735 74.3819 568.817 74.6151C568.899 74.8453 568.917 75.2522 568.572 75.9654L570.373 76.8362ZM568.754 71.9893L563.431 69.4147L562.56 71.2151L567.884 73.7898L568.754 71.9893ZM562.095 69.8795L560.578 73.0158L562.379 73.8866L563.896 70.7503L562.095 69.8795ZM561.043 74.3514L565.294 76.4072L566.165 74.6067L561.914 72.551L561.043 74.3514ZM564.829 75.0716L557.943 89.3087L559.744 90.1795L566.629 75.9423L564.829 75.0716ZM559.279 88.8439L553.584 86.0896L552.713 87.8901L558.408 90.6444L559.279 88.8439ZM552.248 86.5544L550.731 89.6907L552.532 90.5615L554.049 87.4252L552.248 86.5544ZM567.729 64.8643C566.685 67.022 567.691 69.3686 569.745 70.3619L570.616 68.5615C569.451 67.998 569.016 66.7962 569.529 65.7351L567.729 64.8643ZM569.745 70.3619C571.815 71.3628 574.334 70.7508 575.389 68.5692L573.589 67.6984C573.087 68.7357 571.848 69.1573 570.616 68.5615L569.745 70.3619ZM575.389 68.5692C576.444 66.3877 575.36 64.0325 573.29 63.0317L572.42 64.8321C573.652 65.428 574.09 66.6612 573.589 67.6984L575.389 68.5692ZM573.29 63.0317C571.237 62.0383 568.772 62.7065 567.729 64.8643L569.529 65.7351C570.043 64.674 571.255 64.2687 572.42 64.8321L573.29 63.0317Z" fill="#3D3636"/>
<path d="M590.569 103.614L591.45 104.086L589.946 102.831L590.569 103.614ZM587.904 108.583L587.431 109.464L588.313 109.937L588.785 109.055L587.904 108.583ZM587.864 108.561L588.336 107.68L587.455 107.207L586.982 108.088L587.864 108.561ZM585.285 113.368L584.813 114.249L585.694 114.722L586.167 113.841L585.285 113.368ZM570.743 105.568L571.215 104.687L570.334 104.214L569.861 105.095L570.743 105.568ZM569.096 108.638L568.215 108.166L567.742 109.047L568.623 109.519L569.096 108.638ZM602.227 90.4122L603.109 90.8849L603.581 90.0036L602.7 89.531L602.227 90.4122ZM598.672 88.5055L599.145 87.6243L598.264 87.1516L597.791 88.0329L598.672 88.5055ZM596.007 93.4743L595.011 93.387L596.889 93.947L596.007 93.4743ZM578.57 105.231C583.323 107.78 587.792 107.101 591.192 104.396L589.946 102.831C587.176 105.036 583.569 105.643 579.515 103.469L578.57 105.231ZM589.688 103.141L587.023 108.11L588.785 109.055L591.45 104.086L589.688 103.141ZM588.377 107.701L588.336 107.68L587.391 109.442L587.431 109.464L588.377 107.701ZM586.982 108.088L584.404 112.895L586.167 113.841L588.745 109.034L586.982 108.088ZM585.758 112.487L571.215 104.687L570.27 106.449L584.813 114.249L585.758 112.487ZM569.861 105.095L568.215 108.166L569.977 109.111L571.624 106.041L569.861 105.095ZM568.623 109.519L583.974 117.753L584.919 115.99L569.569 107.757L568.623 109.519ZM583.974 117.753C585.036 118.322 586.11 118.596 587.127 118.346C588.17 118.089 588.918 117.342 589.437 116.375L587.674 115.43C587.326 116.079 586.97 116.325 586.649 116.404C586.303 116.489 585.756 116.439 584.919 115.99L583.974 117.753ZM589.437 116.375L603.109 90.8849L601.346 89.9396L587.674 115.43L589.437 116.375ZM602.7 89.531L599.145 87.6243L598.2 89.3868L601.755 91.2935L602.7 89.531ZM597.791 88.0329L595.126 93.0016L596.889 93.947L599.554 88.9782L597.791 88.0329ZM597.004 93.5616C597.373 89.3443 595.559 85.1809 590.717 82.5836L589.772 84.3461C593.897 86.5589 595.312 89.9532 595.011 93.387L597.004 93.5616ZM590.717 82.5836C587.613 80.9188 584.383 80.7017 581.474 81.7721C578.579 82.8372 576.09 85.1422 574.361 88.3661L576.123 89.3114C577.666 86.4355 579.81 84.5152 582.164 83.6491C584.504 82.7884 587.139 82.9343 589.772 84.3461L590.717 82.5836ZM574.361 88.3661C572.632 91.5898 572.083 94.9472 572.791 97.9569C573.502 100.982 575.463 103.565 578.57 105.231L579.515 103.469C576.886 102.058 575.31 99.9353 574.738 97.4991C574.161 95.0474 574.58 92.1876 576.123 89.3114L574.361 88.3661ZM579.718 91.2398C580.974 88.8981 582.533 87.69 584.119 87.2466C585.716 86.7999 587.505 87.0838 589.296 88.0446L590.242 86.2821C588.115 85.1412 585.792 84.7022 583.58 85.3204C581.357 85.942 579.408 87.5866 577.956 90.2945L579.718 91.2398ZM589.296 88.0446C591.098 89.011 592.41 90.4359 592.998 92.1062C593.579 93.7579 593.491 95.7595 592.297 97.9862L594.059 98.9315C595.487 96.2703 595.674 93.6857 594.885 91.4425C594.102 89.2179 592.399 87.4391 590.242 86.2821L589.296 88.0446ZM592.297 97.9862C591.079 100.257 589.453 101.445 587.759 101.874C586.046 102.307 584.139 101.995 582.333 101.027L581.388 102.789C583.542 103.944 585.961 104.392 588.25 103.812C590.559 103.228 592.612 101.629 594.059 98.9315L592.297 97.9862ZM582.333 101.027C580.546 100.068 579.324 98.7273 578.816 97.1385C578.312 95.5599 578.462 93.5817 579.718 91.2398L577.956 90.2945C576.504 93.0021 576.207 95.5435 576.911 97.7476C577.613 99.9414 579.257 101.646 581.388 102.789L582.333 101.027Z" fill="#3D3636"/>
<path d="M595.125 112.521L594.266 112.01L593.754 112.869L594.614 113.38L595.125 112.521ZM598.63 114.609L598.119 115.468L598.978 115.98L599.49 115.121L598.63 114.609ZM610.406 121.623L609.547 121.111L609.035 121.97L609.894 122.482L610.406 121.623ZM613.911 123.711L613.4 124.57L614.259 125.081L614.77 124.222L613.911 123.711ZM607.122 100.352L606.263 99.8404L607.796 101.091L607.122 100.352ZM610.289 95.0353L611.148 95.547L611.66 94.6879L610.801 94.1761L610.289 95.0353ZM606.784 92.9476L607.295 92.0884L606.436 91.5767L605.925 92.4358L606.784 92.9476ZM594.614 113.38L598.119 115.468L599.142 113.75L595.637 111.662L594.614 113.38ZM599.49 115.121L604.439 106.811L602.721 105.787L597.771 114.097L599.49 115.121ZM604.439 106.811C605.932 104.305 607.726 102.719 609.547 102.025C611.337 101.341 613.246 101.482 615.121 102.599L616.145 100.881C613.767 99.4642 611.22 99.2455 608.834 100.156C606.477 101.055 604.372 103.015 602.721 105.787L604.439 106.811ZM615.121 102.599C616.675 103.525 617.389 104.445 617.58 105.424C617.779 106.438 617.476 107.799 616.326 109.729L618.045 110.753C619.288 108.665 619.882 106.773 619.543 105.04C619.197 103.27 617.938 101.949 616.145 100.881L615.121 102.599ZM616.326 109.729L609.547 121.111L611.265 122.135L618.045 110.753L616.326 109.729ZM609.894 122.482L613.4 124.57L614.423 122.851L610.918 120.764L609.894 122.482ZM614.77 124.222L621.784 112.447L620.066 111.423L613.052 123.199L614.77 124.222ZM621.784 112.447C623.437 109.672 624.089 106.975 623.626 104.541C623.158 102.084 621.587 100.067 619.148 98.6146L618.125 100.333C620.176 101.554 621.321 103.129 621.661 104.915C622.005 106.723 621.557 108.92 620.066 111.423L621.784 112.447ZM619.148 98.6146C616.834 97.2359 614.533 96.6663 612.343 96.8728C610.151 97.0793 608.159 98.0541 606.449 99.613L607.796 101.091C609.236 99.7782 610.835 99.0237 612.53 98.8639C614.226 98.7041 616.107 99.1312 618.125 100.333L619.148 98.6146ZM607.981 100.864L611.148 95.547L609.43 94.5236L606.263 99.8404L607.981 100.864ZM610.801 94.1761L607.295 92.0884L606.272 93.8067L609.777 95.8944L610.801 94.1761ZM605.925 92.4358L594.266 112.01L595.984 113.033L607.643 93.4593L605.925 92.4358Z" fill="#3D3636"/>
<path d="M645.482 134.683L646.18 135.4L647.069 134.534L646.034 133.849L645.482 134.683ZM642.119 132.456L642.671 131.622L642.017 131.189L641.441 131.72L642.119 132.456ZM631.776 122.419L632.328 121.585L631.468 121.016L630.926 121.893L631.776 122.419ZM646.873 132.415L646.321 133.249L647.155 133.801L647.707 132.968L646.873 132.415ZM633.409 120.036L632.62 119.421L631.955 120.273L632.857 120.87L633.409 120.036ZM645.143 127.806L644.591 128.64L645.482 129.23L646.011 128.301L645.143 127.806ZM628.237 118.811C626.28 121.767 625.29 125.053 625.671 128.205C626.056 131.385 627.823 134.305 631.139 136.501L632.243 134.833C629.367 132.929 627.964 130.507 627.657 127.965C627.346 125.394 628.142 122.578 629.905 119.916L628.237 118.811ZM631.139 136.501C634.241 138.555 637.163 139.14 639.77 138.745C642.357 138.352 644.525 137.01 646.18 135.4L644.785 133.966C643.347 135.366 641.543 136.452 639.469 136.767C637.416 137.079 634.988 136.651 632.243 134.833L631.139 136.501ZM646.034 133.849L642.671 131.622L641.567 133.29L644.93 135.517L646.034 133.849ZM641.441 131.72C640.377 132.701 639.226 133.238 638.028 133.329C636.83 133.42 635.48 133.073 634.001 132.094L632.897 133.762C634.668 134.934 636.454 135.455 638.18 135.323C639.905 135.192 641.465 134.418 642.796 133.191L641.441 131.72ZM634.001 132.094C632.252 130.936 631.432 129.503 631.252 127.996C631.067 126.455 631.538 124.705 632.627 122.945L630.926 121.893C629.674 123.916 629.013 126.118 629.266 128.234C629.523 130.383 630.71 132.314 632.897 133.762L634.001 132.094ZM631.224 123.253L646.321 133.249L647.426 131.582L632.328 121.585L631.224 123.253ZM647.707 132.968L648.517 131.744L646.85 130.64L646.04 131.863L647.707 132.968ZM648.517 131.744C650.583 128.625 651.297 125.425 650.661 122.452C650.025 119.484 648.075 116.892 645.097 114.921L643.993 116.589C646.635 118.338 648.202 120.522 648.705 122.871C649.207 125.216 648.681 127.874 646.85 130.64L648.517 131.744ZM645.097 114.921C642.203 113.004 639.081 112.277 636.089 112.927C633.099 113.576 630.385 115.568 628.237 118.811L629.905 119.916C631.832 117.005 634.141 115.396 636.513 114.881C638.883 114.367 641.46 114.912 643.993 116.589L645.097 114.921ZM634.197 120.651C635.334 119.194 636.676 118.429 638.024 118.22C639.376 118.01 640.833 118.345 642.222 119.264L643.326 117.597C641.58 116.441 639.627 115.947 637.717 116.243C635.803 116.54 634.028 117.616 632.62 119.421L634.197 120.651ZM642.222 119.264C643.761 120.283 644.686 121.54 645.035 122.869C645.381 124.192 645.189 125.705 644.274 127.31L646.011 128.301C647.144 126.314 647.469 124.266 646.969 122.362C646.472 120.465 645.189 118.83 643.326 117.597L642.222 119.264ZM645.695 126.972L633.961 119.203L632.857 120.87L644.591 128.64L645.695 126.972Z" fill="#3D3636"/>
<path d="M644.353 144.027L643.591 143.379L642.944 144.141L643.706 144.789L644.353 144.027ZM647.462 146.669L646.814 147.431L647.576 148.079L648.224 147.317L647.462 146.669ZM659.961 131.965L660.609 131.203L659.847 130.555L659.199 131.317L659.961 131.965ZM669.112 139.743L668.464 140.505L669.226 141.153L669.874 140.391L669.112 139.743ZM671.368 137.089L672.13 137.736L672.778 136.974L672.016 136.327L671.368 137.089ZM656.298 128.43L643.591 143.379L645.115 144.674L657.822 129.726L656.298 128.43ZM643.706 144.789L646.814 147.431L648.11 145.907L645.001 143.265L643.706 144.789ZM648.224 147.317L660.723 132.612L659.199 131.317L646.7 146.021L648.224 147.317ZM659.313 132.727L668.464 140.505L669.759 138.981L660.609 131.203L659.313 132.727ZM669.874 140.391L672.13 137.736L670.606 136.441L668.35 139.095L669.874 140.391ZM672.016 136.327L662.201 127.984L660.906 129.508L670.721 137.851L672.016 136.327ZM662.201 127.984C661.275 127.197 660.251 126.698 659.145 126.776C658.032 126.854 657.092 127.496 656.298 128.43L657.822 129.726C658.424 129.018 658.909 128.797 659.285 128.771C659.666 128.744 660.19 128.9 660.906 129.508L662.201 127.984Z" fill="#3D3636"/>
<path d="M668.598 165.992L671.298 169.051L675.491 165.35C673.837 168.949 674.17 172.997 677.416 176.674C681.754 181.589 688.196 181.405 693.385 176.825C698.574 172.244 699.521 165.905 695.183 160.991C691.846 157.21 687.833 156.473 684.254 157.614L696.557 146.754L693.858 143.695L668.598 165.992ZM679.916 161.566C684.074 157.895 688.749 158.966 691.692 162.3C694.634 165.633 695.011 170.009 690.715 173.801C686.42 177.592 682.09 176.706 679.148 173.372C676.205 170.039 675.689 165.297 679.916 161.566Z" fill="#3D3636"/>
<path d="M692.197 183.504C690.288 184.932 687.369 188.375 691.377 193.735C694.755 198.25 698.66 198.649 701.861 197.571L699.548 199.301C698.153 200.344 697.95 201.756 698.993 203.151L701.492 206.491L704.281 204.405L702.277 201.725L709.912 196.014C714.831 192.335 715.984 187.064 712.03 181.779C708.461 177.007 703.63 176.212 699.18 178.911L701.596 182.141C704.863 180.156 707.438 181.149 709.332 183.682C711.803 186.986 711.323 189.635 708.129 192.253L702.078 185.616C698.434 181.587 695.097 181.335 692.197 183.504ZM695.017 186.432C696.779 185.114 698.282 185.822 700.177 187.897L705.817 193.982C702.146 196.728 697.407 196.209 694.441 192.244C692.876 190.152 692.925 187.997 695.017 186.432Z" fill="#3D3636"/>
<path d="M708.762 218.375C711.978 223.282 715.642 224.608 719.093 222.346C722.045 220.411 722.335 217.426 721.145 213.602L719.495 208.326C718.8 206.095 719.014 204.749 720.28 203.92C721.698 202.99 723.752 203.782 725.36 206.236C727.27 209.149 726.868 211.715 724.568 213.222L726.804 216.634C730.945 213.921 731.196 209.371 727.98 204.464C725.015 199.939 721.327 198.41 717.992 200.596C714.963 202.581 715.065 205.748 715.859 208.297L717.706 214.376C718.476 216.722 718.236 218.029 716.933 218.884C714.978 220.165 713.229 219.338 711.471 216.654C709.159 213.127 709.374 210.026 712.518 207.966L710.281 204.554C705.566 207.644 705.043 212.7 708.762 218.375Z" fill="#3D3636"/>
<path d="M726.321 223.136C720.501 226.532 717.723 232.504 721.465 238.919C724.999 244.977 730.166 245.465 734.271 244.132L732.238 240.647C729.114 241.568 726.217 240.605 724.253 237.239C721.874 233.161 723.626 229.432 727.397 227.073L736.521 242.713L737.788 241.973C743.886 238.416 745.192 232.559 741.797 226.739C738.517 221.116 732.696 219.417 726.321 223.136ZM729.915 225.657C733.64 223.855 737.131 225.109 739.025 228.356C741.081 231.88 740.431 235.496 737.006 237.813L729.915 225.657Z" fill="#3D3636"/>
<path d="M734.26 262.088C736.551 266.529 740.243 268.286 744.176 268.011L739.165 270.596L741.014 274.181L770.958 258.735L769.109 255.15L754.402 262.736C756.845 259.774 757.655 255.745 755.323 251.223C752.339 245.438 746.067 243.98 739.915 247.153C733.764 250.326 731.276 256.303 734.26 262.088ZM741.786 250.779C746.837 248.173 750.819 250.091 752.836 254.002C754.874 257.953 754.176 262.698 749.246 265.241C744.276 267.805 740.005 265.624 737.966 261.672C735.949 257.761 736.734 253.384 741.786 250.779Z" fill="#3D3636"/>
<path d="M748.183 289.374L754.853 304.418L758.038 303.006L755.456 297.181L770.667 290.437C772.385 289.675 772.726 288.521 772.057 287.012L769.66 281.606L766.476 283.018L768.389 287.335L753.932 293.745L751.368 287.962L748.183 289.374ZM777.201 281.422C775.566 282.147 774.969 283.966 775.694 285.6C776.437 287.277 778.205 288.097 779.839 287.373C781.473 286.648 782.052 284.787 781.309 283.111C780.584 281.476 778.835 280.698 777.201 281.422Z" fill="#3D3636"/>
<path d="M756.593 308.354L758.116 312.139L767.089 308.527C772.787 306.233 777.591 307.611 779.44 312.203C780.895 315.818 779.861 318.161 775.524 319.907L763.234 324.854L764.758 328.638L777.473 323.52C783.171 321.227 785.154 317.068 783.202 312.221C781.319 307.543 777.757 305.567 773.51 305.942L779.251 303.632L777.728 299.847L756.593 308.354Z" fill="#3D3636"/>
<path d="M779.728 359.969L777.048 352.36L792.037 347.175L794.375 353.933L797.667 352.795L795.329 346.036L801.958 343.744L799.454 340.293L793.996 342.181L792.348 337.415L789.055 338.554L790.703 343.32L775.497 348.579C773.418 349.298 772.809 350.624 773.514 352.66L776.436 361.108L779.728 359.969Z" fill="#3D3636"/>
<path d="M778.738 367.915L779.948 371.811L789.185 368.943C795.052 367.121 799.727 368.886 801.195 373.614C802.351 377.335 801.13 379.586 796.664 380.972L784.012 384.901L785.222 388.797L798.312 384.733C804.178 382.911 806.494 378.928 804.944 373.938C803.449 369.122 800.059 366.863 795.796 366.89L812.125 361.82L810.916 357.924L778.738 367.915Z" fill="#3D3636"/>
<path d="M797.603 389.399C791.108 391.195 786.897 396.259 788.876 403.417C790.746 410.177 795.617 411.969 799.926 411.728L798.851 407.84C795.594 407.932 793.039 406.261 792.001 402.505C790.742 397.954 793.389 394.797 797.638 393.479L802.464 410.931L803.878 410.54C810.682 408.659 813.441 403.33 811.645 396.835C809.91 390.561 804.716 387.432 797.603 389.399ZM800.433 392.754C804.495 391.963 807.55 394.067 808.552 397.69C809.64 401.622 808.087 404.953 804.184 406.318L800.433 392.754Z" fill="#3D3636"/>
<path d="M808.761 430.102C800.889 431.869 797.444 436.824 799.392 445.501C801.339 454.178 806.591 457.274 814.463 455.508L834.278 451.061L833.364 446.99L814.4 451.247C808.093 452.662 804.401 451.283 802.925 444.708C801.45 438.133 804.218 435.397 810.525 433.982L829.489 429.725L828.576 425.655L808.761 430.102Z" fill="#3D3636"/>
<path d="M803.458 461.605L804.231 465.611L813.728 463.779C819.759 462.616 824.212 464.886 825.149 469.747C825.887 473.573 824.425 475.675 819.834 476.561L806.826 479.069L807.598 483.075L821.056 480.48C827.088 479.317 829.829 475.614 828.839 470.483C827.884 465.531 824.765 462.912 820.525 462.469L826.601 461.297L825.829 457.291L803.458 461.605Z" fill="#3D3636"/>
<path d="M808.75 489.628L811.426 505.866L814.863 505.299L813.827 499.012L830.246 496.306C832.1 496.001 832.72 494.97 832.452 493.341L831.49 487.507L828.053 488.073L828.82 492.732L813.216 495.303L812.187 489.062L808.75 489.628ZM838.835 489.223C837.071 489.514 836.035 491.125 836.326 492.889C836.624 494.698 838.129 495.936 839.893 495.646C841.657 495.355 842.685 493.699 842.387 491.89C842.096 490.126 840.599 488.932 838.835 489.223Z" fill="#3D3636"/>
<path d="M818.087 527.672L816.922 519.689L832.629 517.488L833.621 524.57L837.071 524.087L836.079 517.005L843.025 516.032L841.233 512.163L835.513 512.965L834.814 507.971L831.364 508.454L832.063 513.448L816.129 515.68C813.95 515.986 813.097 517.17 813.396 519.303L814.636 528.156L818.087 527.672Z" fill="#3D3636"/>
<path d="M826.814 530.849C820.12 531.622 815.178 535.976 816.03 543.353C816.835 550.321 821.371 552.842 825.666 553.269L825.203 549.262C821.972 548.851 819.705 546.805 819.258 542.934C818.716 538.244 821.818 535.532 826.219 534.886L828.297 552.873L829.754 552.705C836.767 551.895 840.315 547.055 839.541 540.361C838.795 533.895 834.146 530.002 826.814 530.849ZM829.093 534.6C833.229 534.445 835.923 536.995 836.354 540.729C836.822 544.782 834.775 547.833 830.708 548.58L829.093 534.6Z" fill="#3D3636"/>
<path d="M818.795 570.555C819.217 575.533 821.958 578.567 825.699 579.815L820.08 580.291L820.421 584.31L853.993 581.466L853.653 577.446L837.163 578.843C840.553 577.038 842.84 573.624 842.41 568.554C841.861 562.068 836.621 558.325 829.724 558.909C822.827 559.494 818.246 564.068 818.795 570.555ZM830.068 562.975C835.732 562.495 838.679 565.787 839.051 570.172C839.426 574.603 836.969 578.722 831.442 579.19C825.87 579.662 822.754 576.016 822.379 571.585C822.007 567.2 824.404 563.455 830.068 562.975Z" fill="#3D3636"/>
<path d="M821.574 602.409L821.746 606.577L836.357 605.972L822.389 622.104L822.63 627.921L838.438 609.694L854.914 626.446L854.685 620.904L839.792 605.83L854.036 605.24L853.863 601.072L821.574 602.409Z" fill="#3D3636"/>
<path d="M822.631 630.168L822.901 646.623L826.384 646.565L826.28 640.195L842.918 639.922C844.797 639.891 845.561 638.962 845.534 637.312L845.437 631.399L841.954 631.456L842.031 636.177L826.218 636.436L826.115 630.111L822.631 630.168ZM852.451 634.172C850.664 634.202 849.404 635.644 849.433 637.431C849.463 639.264 850.77 640.71 852.558 640.681C854.345 640.652 855.605 639.164 855.575 637.33C855.545 635.543 854.239 634.143 852.451 634.172Z" fill="#3D3636"/>
<path d="M822.964 654.589L822.915 658.669L832.586 658.786C838.728 658.861 842.633 661.98 842.573 666.93C842.526 670.826 840.671 672.591 835.995 672.535L822.748 672.374L822.699 676.454L836.404 676.62C842.546 676.694 845.976 673.618 846.039 668.393C846.1 663.351 843.572 660.157 839.507 658.87L845.695 658.945L845.745 654.866L822.964 654.589Z" fill="#3D3636"/>
<path d="M821.726 691.261C821.52 696.253 823.86 699.607 827.414 701.313L821.781 701.081L821.783 701.035L816.332 700.811L817.01 684.323L813.529 684.179L812.814 701.584C812.725 703.737 813.646 704.784 815.478 704.859L844.379 706.047L844.544 702.017L838.911 701.785C842.499 700.419 845.196 697.318 845.405 692.234C845.672 685.73 840.943 681.361 834.027 681.076C827.111 680.792 821.993 684.757 821.726 691.261ZM833.859 685.153C839.585 685.388 842.052 688.976 841.87 693.419C841.685 697.908 838.733 701.64 833.191 701.412C827.557 701.181 824.967 697.22 825.152 692.732C825.335 688.289 828.134 684.917 833.859 685.153Z" fill="#3D3636"/>
<path d="M820.021 722.167C819.652 727.15 821.88 730.578 825.377 732.4L819.754 731.984L819.456 736.007L853.057 738.493L853.355 734.47L836.851 733.249C840.483 732.001 843.28 728.99 843.655 723.916C844.136 717.424 839.552 712.902 832.649 712.391C825.746 711.88 820.501 715.675 820.021 722.167ZM832.348 716.46C838.017 716.879 840.408 720.596 840.083 724.984C839.755 729.419 836.679 733.098 831.147 732.689C825.57 732.276 823.069 728.184 823.397 723.75C823.722 719.361 826.679 716.04 832.348 716.46Z" fill="#3D3636"/>
<path d="M830.413 741.69C823.665 740.986 818.105 745.245 817.349 752.494C816.597 759.698 821.158 765.013 827.906 765.717C834.608 766.416 840.169 762.157 840.92 754.953C841.676 747.704 837.115 742.389 830.413 741.69ZM829.994 745.702C834.553 746.178 837.997 749.394 837.455 754.592C836.918 759.744 832.884 762.181 828.325 761.705C823.72 761.225 820.276 758.008 820.814 752.856C821.356 747.658 825.389 745.222 829.994 745.702Z" fill="#3D3636"/>
<path d="M815.752 771.933L815.163 775.97L824.507 777.334C830.54 778.215 834.388 781.047 833.693 785.81C833.202 789.167 830.588 789.943 826.233 789.307L813.487 787.446L812.898 791.483L822.242 792.847C828.274 793.728 832.123 796.56 831.427 801.323C830.937 804.679 828.322 805.456 823.968 804.82L811.222 802.959L810.632 806.996L823.877 808.93C829.91 809.811 833.987 807.904 834.736 802.779C835.405 798.198 833.08 795.079 829.903 793.364C833.78 793.142 836.411 791.303 836.968 787.493C837.617 783.048 835.227 780.058 832.036 778.434L837.706 779.262L838.296 775.225L815.752 771.933Z" fill="#3D3636"/>
<path d="M816.713 815.384L804.024 809.444L802.399 812.883L815.089 818.823L816.713 815.384Z" fill="#3D3636"/>
<path d="M815.948 840.688C809.406 839.277 803.434 842.397 801.878 849.612C800.912 854.093 802.233 860.145 808.57 862.075L809.43 858.086C805.487 856.58 804.588 853.572 805.284 850.346C806.366 845.327 810.572 843.655 815.098 844.631C819.579 845.597 822.722 848.854 821.64 853.873C820.944 857.099 818.886 859.469 814.672 859.217L813.813 863.205C820.381 864.059 824.079 859.088 825.045 854.607C826.601 847.393 822.446 842.089 815.948 840.688Z" fill="#3D3636"/>
<path d="M796.814 871.699C795.618 876.551 797.343 880.281 801.052 882.47L794.999 880.978L794.034 884.894L816.154 890.347L817.12 886.43L807.728 884.115C801.764 882.645 798.672 878.72 799.867 873.868C800.8 870.085 802.997 868.833 807.537 869.952L820.4 873.122L821.387 869.117L808.124 865.847C802.16 864.377 798.076 866.581 796.814 871.699Z" fill="#3D3636"/>
<path d="M810.814 898.034L791.913 892.772L790.819 896.702L809.41 901.878L806.189 913.448L809.545 914.383L813 901.974C813.578 899.898 812.889 898.612 810.814 898.034Z" fill="#3D3636"/>
<path d="M805.248 917.736L786.472 912.045L785.289 915.949L803.758 921.547L800.274 933.041L803.608 934.052L807.344 921.724C807.969 919.662 807.31 918.361 805.248 917.736Z" fill="#3D3636"/>
<path d="M791.233 936.421C784.848 934.268 778.521 936.102 776.149 943.139C773.908 949.785 776.938 953.999 780.642 956.215L781.93 952.392C779.182 950.643 778.003 947.827 779.248 944.135C780.756 939.661 784.717 938.529 788.975 939.819L783.19 956.977L784.58 957.446C791.27 959.701 796.542 956.835 798.694 950.449C800.774 944.281 798.227 938.778 791.233 936.421ZM791.697 940.785C795.504 942.407 796.855 945.862 795.654 949.424C794.35 953.29 791.198 955.178 787.201 954.121L791.697 940.785Z" fill="#3D3636"/>
<path d="M771.429 958.313L770.004 962.136L779.068 965.513C784.824 967.657 787.446 971.911 785.718 976.55C784.358 980.202 782.016 981.237 777.634 979.605L765.22 974.98L763.795 978.803L776.639 983.588C782.396 985.732 786.663 983.995 788.487 979.098C790.247 974.373 788.946 970.513 785.555 967.929L791.354 970.089L792.778 966.266L771.429 958.313Z" fill="#3D3636"/>
<path d="M758.401 1001.34L761.415 993.86L776.093 999.869L773.384 1006.49L776.608 1007.81L779.317 1001.19L785.808 1003.85L786.208 999.602L780.863 997.413L782.774 992.747L779.55 991.427L777.639 996.093L762.749 989.997C760.712 989.164 759.38 989.757 758.563 991.751L755.177 1000.02L758.401 1001.34Z" fill="#3D3636"/>
<path d="M753.544 1003.89L746.792 1019.3L749.983 1020.7L752.54 1014.86L778.11 1026.06C779.496 1026.67 780.559 1026.19 781.166 1024.8L783.76 1018.88L780.569 1017.48L778.656 1021.85L754.178 1011.12L756.735 1005.29L753.544 1003.89Z" fill="#3D3636"/>
<path d="M756.198 1052.9L757.942 1049.22L749.198 1045.08C743.645 1042.46 741.395 1037.99 743.511 1033.52C745.177 1030 747.599 1029.16 751.826 1031.16L763.802 1036.83L765.546 1033.14L753.155 1027.28C747.603 1024.65 743.203 1026.02 740.969 1030.74C738.814 1035.3 739.782 1039.26 742.941 1042.12L732.415 1037.14L739.47 1022.23L736.321 1020.74L728.874 1036.48C727.953 1038.43 728.392 1039.76 730.049 1040.54L756.198 1052.9Z" fill="#3D3636"/>
<path d="M737.418 1064.88C731.438 1061.68 724.679 1063.51 721.236 1069.94C717.815 1076.32 720.026 1082.97 726.006 1086.17C731.945 1089.36 738.704 1087.52 742.125 1081.13C745.568 1074.71 743.357 1068.06 737.418 1064.88ZM735.512 1068.44C739.552 1070.6 741.523 1074.88 739.054 1079.49C736.607 1084.05 731.952 1084.78 727.911 1082.62C723.831 1080.43 721.86 1076.15 724.307 1071.58C726.776 1066.98 731.431 1066.25 735.512 1068.44Z" fill="#3D3636"/>
<path d="M705.54 1081.84L703.476 1085.35L715.616 1092.47C711.845 1092.02 708.047 1093.51 705.497 1097.86C702.181 1103.51 704.325 1109.55 710.296 1113.05C716.306 1116.58 722.624 1115.5 725.94 1109.85C728.421 1105.62 727.972 1101.58 725.699 1098.39L730.484 1101.19L732.548 1097.67L705.54 1081.84ZM720.591 1095.5C725.455 1098.35 725.857 1103.1 723.608 1106.94C721.358 1110.77 717.279 1112.47 712.336 1109.57C707.433 1106.7 706.925 1102.31 709.174 1098.47C711.424 1094.64 715.807 1092.69 720.591 1095.5Z" fill="#3D3636"/>
<path d="M708.073 1117.22C702.382 1113.61 695.801 1113.89 691.825 1120.16C688.07 1126.08 690.013 1130.9 693.084 1133.93L695.243 1130.52C692.989 1128.17 692.513 1125.15 694.599 1121.86C697.126 1117.88 701.243 1117.72 705.072 1119.98L695.379 1135.28L696.618 1136.06C702.58 1139.84 708.382 1138.31 711.989 1132.62C715.474 1127.12 714.307 1121.17 708.073 1117.22ZM707.487 1121.57C710.8 1124.05 711.292 1127.72 709.279 1130.9C707.095 1134.34 703.585 1135.43 699.953 1133.45L707.487 1121.57Z" fill="#3D3636"/>
<path d="M683.034 1134.63L680.731 1138L688.714 1143.46C693.785 1146.93 695.305 1151.69 692.51 1155.78C690.31 1158.99 687.788 1159.43 683.928 1156.79L672.993 1149.31L670.69 1152.68L682.004 1160.42C687.074 1163.89 691.633 1163.23 694.584 1158.92C697.43 1154.75 697.097 1150.69 694.428 1147.37L699.536 1150.86L701.839 1147.49L683.034 1134.63Z" fill="#3D3636"/>
<path d="M675.242 1179.25L672.252 1183.2L659.646 1173.65L662.636 1169.7L659.859 1167.6L650.42 1180.06L653.196 1182.16L657.183 1176.9L669.788 1186.45L665.802 1191.71L668.579 1193.82L672.565 1188.56L675.123 1190.49C677.425 1192.24 677.958 1193.73 676.214 1196.04L673.723 1199.32L676.5 1201.43L678.881 1198.29C682.285 1193.79 681.35 1190.09 677.66 1187.3L675.029 1185.3L678.019 1181.36L675.242 1179.25Z" fill="#3D3636"/>
<path d="M656.573 1190.79C651.277 1186.55 644.296 1187.13 639.742 1192.82C635.216 1198.48 636.18 1205.41 641.477 1209.65C646.737 1213.86 653.718 1213.29 658.244 1207.63C662.798 1201.94 661.834 1195.01 656.573 1190.79ZM654.052 1193.94C657.631 1196.81 658.789 1201.38 655.524 1205.46C652.287 1209.5 647.576 1209.37 643.997 1206.5C640.383 1203.61 639.224 1199.04 642.461 1195C645.727 1190.92 650.438 1191.05 654.052 1193.94Z" fill="#3D3636"/>
<path d="M640.798 1223.08L625.765 1210.47L623.143 1213.6L637.931 1226L630.214 1235.2L632.883 1237.44L641.16 1227.57C642.544 1225.92 642.449 1224.46 640.798 1223.08Z" fill="#3D3636"/>
<path d="M619.565 1248.38L604.544 1235.76L601.92 1238.89L616.695 1251.3L608.968 1260.5L611.635 1262.74L619.922 1252.88C621.308 1251.23 621.214 1249.77 619.565 1248.38Z" fill="#3D3636"/>
<path d="M600.763 1258.43C595.607 1254.09 589.048 1253.49 584.267 1259.17C579.751 1264.53 581.031 1269.56 583.668 1272.98L586.265 1269.89C584.346 1267.26 584.278 1264.21 586.787 1261.23C589.826 1257.62 593.927 1258.01 597.418 1260.77L585.761 1274.62L586.884 1275.57C592.285 1280.11 598.24 1279.37 602.579 1274.21C606.769 1269.23 606.41 1263.18 600.763 1258.43ZM599.599 1262.66C602.549 1265.56 602.543 1269.27 600.123 1272.15C597.497 1275.27 593.872 1275.88 590.538 1273.43L599.599 1262.66Z" fill="#3D3636"/>
<path d="M573.352 1272.85L570.723 1275.97L577.945 1282.05C582.607 1285.98 584.385 1290.42 581.283 1294.1C579.097 1296.69 576.466 1295.97 573.101 1293.14L563.25 1284.84L560.621 1287.96L567.843 1294.04C572.505 1297.97 574.282 1302.41 571.181 1306.09C568.995 1308.68 566.364 1307.96 562.998 1305.13L553.148 1296.83L550.519 1299.95L560.755 1308.57C565.417 1312.5 569.887 1313.03 573.225 1309.07C576.208 1305.53 575.877 1301.65 574.081 1298.52C577.492 1300.38 580.698 1300.2 583.179 1297.25C586.074 1293.82 585.619 1290.02 583.764 1286.96L588.145 1290.65L590.774 1287.53L573.352 1272.85Z" fill="#3D3636"/>
<path d="M555.197 1312.1C550.011 1307.73 543.018 1308.13 538.319 1313.7C533.649 1319.23 534.435 1326.19 539.621 1330.57C544.772 1334.91 551.764 1334.51 556.434 1328.98C561.134 1323.41 560.348 1316.45 555.197 1312.1ZM552.596 1315.19C556.1 1318.14 557.141 1322.74 553.771 1326.73C550.431 1330.69 545.726 1330.44 542.222 1327.48C538.683 1324.5 537.642 1319.9 540.982 1315.94C544.351 1311.95 549.057 1312.2 552.596 1315.19Z" fill="#3D3636"/>
<path d="M519.902 1341.64L525.07 1335.44L537.191 1345.67L532.58 1351.14L535.242 1353.38L539.854 1347.92L545.214 1352.44L546.899 1348.53L542.485 1344.8L545.737 1340.95L543.074 1338.7L539.822 1342.55L527.525 1332.18C525.844 1330.76 524.393 1330.91 523.004 1332.56L517.239 1339.39L519.902 1341.64Z" fill="#3D3636"/>
<path d="M522.259 1351.57C517.109 1347.22 510.551 1346.61 505.762 1352.28C501.239 1357.64 502.511 1362.67 505.143 1366.09L507.744 1363.01C505.829 1360.38 505.766 1357.32 508.279 1354.35C511.324 1350.74 515.424 1351.14 518.911 1353.9L507.234 1367.74L508.355 1368.69C513.75 1373.24 519.706 1372.51 524.052 1367.36C528.25 1362.38 527.9 1356.33 522.259 1351.57ZM521.089 1355.8C524.035 1358.7 524.024 1362.41 521.599 1365.29C518.968 1368.4 515.343 1369 512.013 1366.55L521.089 1355.8Z" fill="#3D3636"/>
<path d="M485.272 1375.22L482.113 1367.52L479.276 1370.88L482.145 1377.86C482.718 1379.24 483.195 1379.88 484.352 1380.86L498.542 1392.83C500.014 1394.07 501.219 1393.71 502.402 1392.31L506.244 1387.75L503.581 1385.5L500.478 1389.18L487.513 1378.25C486.357 1377.27 485.815 1376.64 485.272 1375.22ZM509.56 1394.63C508.193 1393.47 506.296 1393.73 505.143 1395.1C503.961 1396.5 503.996 1398.45 505.363 1399.6C506.729 1400.75 508.656 1400.46 509.839 1399.06C510.991 1397.69 510.927 1395.78 509.56 1394.63Z" fill="#3D3636"/>
<path d="M486.6 1393.41C481.412 1389.03 474.42 1389.43 469.722 1395.01C465.054 1400.55 465.842 1407.5 471.03 1411.88C476.182 1416.22 483.174 1415.82 487.842 1410.28C492.54 1404.71 491.752 1397.75 486.6 1393.41ZM484 1396.49C487.505 1399.45 488.547 1404.04 485.179 1408.04C481.84 1412 477.134 1411.75 473.629 1408.79C470.09 1405.81 469.047 1401.21 472.386 1397.25C475.754 1393.26 480.46 1393.51 484 1396.49Z" fill="#3D3636"/>
<path d="M458.638 1408.87L456.01 1411.99L460.288 1415.59C456.485 1414.49 452.53 1415.41 449.371 1419.17C445.149 1424.18 446.279 1430.52 451.575 1434.98C456.87 1439.44 463.279 1439.44 467.501 1434.43C470.748 1430.57 470.886 1426.49 469.23 1423.12L481.785 1433.69L484.412 1430.57L458.638 1408.87ZM464.683 1419.41C468.926 1422.98 468.556 1427.77 465.692 1431.17C462.828 1434.57 458.556 1435.59 454.173 1431.9C449.789 1428.21 450.029 1423.79 452.892 1420.39C455.756 1416.99 460.37 1415.78 464.683 1419.41Z" fill="#3D3636"/>
<path d="M433.103 1438.51C429.327 1443 429.111 1446.89 432.269 1449.54C434.971 1451.81 437.914 1451.23 441.233 1448.99L445.813 1445.9C447.75 1444.59 449.1 1444.41 450.258 1445.38C451.557 1446.47 451.389 1448.67 449.501 1450.91C447.259 1453.58 444.687 1453.93 442.581 1452.16L439.956 1455.29C443.746 1458.47 448.176 1457.4 451.952 1452.91C455.432 1448.77 455.837 1444.8 452.784 1442.23C450.012 1439.9 447.008 1440.91 444.795 1442.41L439.504 1445.92C437.478 1447.33 436.157 1447.48 434.964 1446.48C433.175 1444.97 433.465 1443.06 435.529 1440.61C438.243 1437.38 441.275 1436.69 444.152 1439.11L446.777 1435.99C442.461 1432.36 437.468 1433.31 433.103 1438.51Z" fill="#3D3636"/>
<path d="M420.712 1463.81C418.885 1462.28 414.864 1460.22 410.566 1465.35C406.945 1469.68 407.451 1473.57 409.233 1476.44L407.02 1474.58C405.684 1473.46 404.264 1473.59 403.145 1474.93L400.466 1478.12L403.136 1480.36L405.285 1477.8L412.594 1483.92C417.302 1487.86 422.696 1487.78 426.936 1482.72C430.763 1478.15 430.43 1473.27 426.783 1469.55L424.192 1472.65C426.873 1475.37 426.496 1478.1 424.465 1480.53C421.815 1483.69 419.127 1483.83 415.847 1481.32L420.92 1473.91C424.007 1469.44 423.488 1466.13 420.712 1463.81ZM418.508 1467.22C420.194 1468.64 419.85 1470.26 418.265 1472.58L413.633 1479.47C410.119 1476.52 409.539 1471.79 412.719 1468C414.397 1465.99 416.505 1465.55 418.508 1467.22Z" fill="#3D3636"/>
<path d="M397.595 1481.56L394.979 1484.69L402.402 1490.89C407.116 1494.83 408.173 1499.71 404.999 1503.51C402.501 1506.5 399.948 1506.7 396.359 1503.7L386.192 1495.21L383.577 1498.34L394.096 1507.12C398.81 1511.06 403.412 1510.84 406.762 1506.83C409.994 1502.96 410.052 1498.89 407.714 1495.33L412.464 1499.29L415.079 1496.16L397.595 1481.56Z" fill="#3D3636"/>
<path d="M372.806 1510.55C369.609 1514.39 369.43 1518.48 371.216 1521.99L366.883 1518.38L364.302 1521.49L390.198 1543.04L392.778 1539.94L380.06 1529.35C383.74 1530.45 387.766 1529.62 391.021 1525.71C395.185 1520.71 394.084 1514.37 388.764 1509.94C383.444 1505.51 376.97 1505.55 372.806 1510.55ZM386.154 1513.07C390.523 1516.71 390.308 1521.12 387.493 1524.51C384.648 1527.92 380.007 1529.13 375.743 1525.58C371.445 1522 371.789 1517.22 374.633 1513.8C377.448 1510.42 381.785 1509.44 386.154 1513.07Z" fill="#3D3636"/>
<path d="M366.89 1549.1L351.772 1536.6L349.172 1539.74L364.042 1552.04L356.387 1561.3L359.071 1563.52L367.282 1553.59C368.655 1551.93 368.55 1550.48 366.89 1549.1Z" fill="#3D3636"/>
<path d="M348.059 1559.43C342.858 1555.15 336.293 1554.61 331.572 1560.34C327.113 1565.76 328.445 1570.77 331.117 1574.16L333.682 1571.05C331.736 1568.43 331.636 1565.38 334.113 1562.38C337.115 1558.73 341.219 1559.08 344.739 1561.8L333.228 1575.78L334.36 1576.71C339.809 1581.2 345.756 1580.4 350.04 1575.2C354.178 1570.17 353.756 1564.12 348.059 1559.43ZM346.939 1563.67C349.92 1566.55 349.953 1570.25 347.563 1573.16C344.969 1576.31 341.352 1576.95 337.992 1574.54L346.939 1563.67Z" fill="#3D3636"/>
<path d="M321.26 1573.6L310.601 1586.62L313.296 1588.83L317.333 1583.9L338.932 1601.58C340.102 1602.54 341.257 1602.36 342.215 1601.19L346.31 1596.19L343.615 1593.98L340.594 1597.67L319.918 1580.74L323.955 1575.81L321.26 1573.6Z" fill="#3D3636"/>
<path d="M316.931 1596.91C311.67 1592.62 304.686 1593.14 300.083 1598.79C295.509 1604.41 296.415 1611.35 301.675 1615.64C306.9 1619.89 313.885 1619.38 318.458 1613.76C323.061 1608.11 322.156 1601.16 316.931 1596.91ZM314.383 1600.04C317.938 1602.93 319.057 1607.51 315.757 1611.56C312.486 1615.58 307.777 1615.41 304.222 1612.51C300.633 1609.59 299.513 1605.01 302.784 1600.99C306.084 1596.94 310.793 1597.11 314.383 1600.04Z" fill="#3D3636"/>
<path d="M298.304 1619.8C293.098 1615.6 286.36 1615.69 281.723 1621.44C278.842 1625 277.296 1631 282.085 1635.58L284.649 1632.4C281.807 1629.28 282.359 1626.19 284.433 1623.63C287.659 1619.63 292.167 1620.03 295.769 1622.94C299.335 1625.82 300.674 1630.15 297.448 1634.14C295.374 1636.71 292.469 1637.9 288.821 1635.77L286.257 1638.95C291.737 1642.67 297.277 1639.89 300.158 1636.33C304.796 1630.59 303.474 1623.98 298.304 1619.8Z" fill="#3D3636"/>
<path d="M276.694 1638.48C274.833 1636.99 270.768 1635.02 266.585 1640.25C263.062 1644.65 263.655 1648.53 265.501 1651.36L263.247 1649.56C261.887 1648.47 260.469 1648.62 259.381 1649.98L256.774 1653.24L259.494 1655.42L261.585 1652.81L269.029 1658.76C273.824 1662.6 279.215 1662.4 283.34 1657.24C287.064 1652.59 286.621 1647.71 282.893 1644.08L280.372 1647.23C283.113 1649.9 282.797 1652.64 280.821 1655.11C278.242 1658.33 275.558 1658.53 272.222 1656.09L277.128 1648.57C280.115 1644.03 279.521 1640.74 276.694 1638.48ZM274.567 1641.94C276.285 1643.32 275.977 1644.95 274.444 1647.3L269.968 1654.29C266.389 1651.42 265.703 1646.71 268.797 1642.84C270.429 1640.8 272.527 1640.31 274.567 1641.94Z" fill="#3D3636"/>
<path d="M248.099 1669.77L253.082 1663.43L265.501 1673.29L261.053 1678.89L263.781 1681.06L268.229 1675.46L273.721 1679.82L275.289 1675.86L270.767 1672.27L273.903 1668.32L271.175 1666.15L268.039 1670.1L255.44 1660.09C253.717 1658.72 252.271 1658.92 250.931 1660.61L245.371 1667.61L248.099 1669.77Z" fill="#3D3636"/>
<path d="M241.122 1672.98L230.948 1685.92L233.686 1688.07L237.625 1683.06L250.704 1693.35C252.181 1694.51 253.361 1694.28 254.381 1692.98L258.037 1688.33L255.299 1686.18L252.38 1689.89L239.949 1680.11L243.861 1675.14L241.122 1672.98ZM261.728 1694.91C260.323 1693.8 258.435 1694.13 257.33 1695.53C256.196 1696.97 256.298 1698.92 257.703 1700.03C259.109 1701.13 261.024 1700.77 262.158 1699.33C263.263 1697.92 263.133 1696.01 261.728 1694.91Z" fill="#3D3636"/>
<path d="M237.167 1696.48C231.813 1692.31 224.842 1692.98 220.365 1698.74C215.917 1704.45 216.977 1711.38 222.331 1715.54C227.649 1719.68 234.62 1719.01 239.068 1713.29C243.545 1707.54 242.485 1700.62 237.167 1696.48ZM234.69 1699.66C238.307 1702.48 239.528 1707.03 236.319 1711.15C233.138 1715.24 228.426 1715.17 224.808 1712.36C221.154 1709.52 219.933 1704.96 223.115 1700.88C226.324 1696.75 231.036 1696.82 234.69 1699.66Z" fill="#3D3636"/>
<path d="M210.2 1712.59L207.716 1715.82L215.388 1721.71C220.26 1725.45 221.517 1730.29 218.502 1734.22C216.129 1737.31 213.586 1737.61 209.877 1734.76L199.369 1726.69L196.885 1729.93L207.756 1738.28C212.629 1742.02 217.218 1741.61 220.4 1737.47C223.471 1733.47 223.361 1729.39 220.878 1725.93L225.787 1729.7L228.271 1726.46L210.2 1712.59Z" fill="#3D3636"/>
</svg>
