<svg width="20" height="20" viewBox="0 0 20 20" fill="none" xmlns="http://www.w3.org/2000/svg">
<path d="M13.75 5H11.25C10.7897 5 10.4166 5.3731 10.4166 5.83333V8.33333H13.75C13.8447 8.33123 13.9346 8.37533 13.991 8.45158C14.0473 8.52783 14.0631 8.62667 14.0333 8.71667L13.4166 10.55C13.3598 10.7182 13.2026 10.832 13.025 10.8333H10.4166V17.0833C10.4166 17.3134 10.2301 17.5 9.99998 17.5H7.91665C7.68653 17.5 7.49998 17.3134 7.49998 17.0833V10.8333H6.24998C6.01986 10.8333 5.83331 10.6467 5.83331 10.4167V8.75C5.83331 8.51992 6.01986 8.33333 6.24998 8.33333H7.49998V5.83333C7.49998 3.99238 8.9924 2.5 10.8333 2.5H13.75C13.9801 2.5 14.1666 2.68655 14.1666 2.91667V4.58333C14.1666 4.81345 13.9801 5 13.75 5Z" fill="black"/>
</svg>
